<?xml version="1.0" encoding="UTF-8" standalone="no"?>
<svg xmlns:dc="http://purl.org/dc/elements/1.1/" xmlns:cc="http://creativecommons.org/ns#" xmlns:rdf="http://www.w3.org/1999/02/22-rdf-syntax-ns#" xmlns:svg="http://www.w3.org/2000/svg" xmlns="http://www.w3.org/2000/svg" xmlns:sodipodi="http://sodipodi.sourceforge.net/DTD/sodipodi-0.dtd" xmlns:inkscape="http://www.inkscape.org/namespaces/inkscape" id="workspace" version="1.1" sodipodi:docname="alto-ietf.svg" width="501.36139" height="449.89362" inkscape:version="0.92.4 (5da689c313, 2019-01-14)">
  <metadata>
    <rdf:RDF>
      <cc:Work rdf:about="">
        <dc:format>
          image/svg+xml
        </dc:format>
        <dc:type rdf:resource="http://purl.org/dc/dcmitype/StillImage"/>
        <dc:title/>
      </cc:Work>
    </rdf:RDF>
  </metadata>
  <sodipodi:namedview pagecolor="#ffffff" bordercolor="#666666" borderopacity="1" objecttolerance="10" gridtolerance="10" guidetolerance="10" inkscape:pageopacity="0" inkscape:pageshadow="2" inkscape:window-width="1920" inkscape:window-height="1001" id="namedview347" showgrid="false" inkscape:pagecheckerboard="false" inkscape:zoom="1" inkscape:cx="184.15663" inkscape:cy="238.51071" inkscape:window-x="-9" inkscape:window-y="-9" inkscape:window-maximized="1" inkscape:current-layer="workspace"/>
  <desc>
    LOGO for ALTO IETF WG
  </desc>
  <defs>
    <linearGradient x1="0" y1="88.385002" x2="176.77" y2="88.385002" id="lgec4c4c_1" gradientUnits="userSpaceOnUse">
      <stop offset="0%" stop-color="#ec4c4c"/>
      <stop offset="100%" stop-color="#ec4c4c"/>
    </linearGradient>
    <linearGradient x1="49.749621" y1="99.453019" x2="49.749621" y2="1.0502593" id="lgwhite" gradientTransform="scale(1.0050328,0.99499242)" gradientUnits="userSpaceOnUse">
      <stop offset="52.13%" stop-color="#ffffff"/>
      <stop offset="65.88%" stop-color="#ffffff"/>
      <stop offset="100%" stop-color="#ffffff"/>
    </linearGradient>
    <linearGradient x1="95.926182" y1="19.687117" x2="122.43844" y2="19.687117" id="lgec4c4c_2" gradientTransform="scale(0.41490237,2.4102056)" gradientUnits="userSpaceOnUse">
      <stop offset="0%" stop-color="#ec4c4c"/>
      <stop offset="100%" stop-color="#ec4c4c"/>
    </linearGradient>
    <linearGradient x1="87.687637" y1="25.730423" x2="122.32057" y2="25.730423" id="lge5d80e_1" gradientTransform="scale(0.54283593,1.8421773)" gradientUnits="userSpaceOnUse">
      <stop offset="0%" stop-color="#e5d80e"/>
      <stop offset="100%" stop-color="#e5d80e"/>
    </linearGradient>
    <linearGradient x1="45.161758" y1="25.531225" x2="79.544166" y2="25.531225" id="lg1761a0_1" gradientTransform="scale(0.53806586,1.8585086)" gradientUnits="userSpaceOnUse">
      <stop offset="0%" stop-color="#1761a0"/>
      <stop offset="100%" stop-color="#1761a0"/>
    </linearGradient>
    <linearGradient x1="0" y1="455.07781" x2="34.326943" y2="455.07781" id="lg1761a0_2" gradientTransform="scale(5.1487836,0.19422063)" gradientUnits="userSpaceOnUse">
      <stop offset="0%" stop-color="#1761a0" id="stop113"/>
      <stop offset="100%" stop-color="#1761a0" id="stop115"/>
    </linearGradient>
    <linearGradient x1="0" y1="455.07781" x2="34.326943" y2="455.07781" id="lge5d80e_2" gradientTransform="scale(5.1487836,0.19422063)" gradientUnits="userSpaceOnUse">
      <stop offset="0%" stop-color="#e5d80e"/>
      <stop offset="100%" stop-color="#e5d80e"/>
    </linearGradient>
    <linearGradient x1="-72.464982" y1="-70.702477" x2="72.89818" y2="-70.702477" id="lgec4c4c_3" gradientTransform="scale(2.0194938,0.4951736)" gradientUnits="userSpaceOnUse">
      <stop offset="0%" stop-color="#ec4c4c"/>
      <stop offset="100%" stop-color="#ec4c4c"/>
    </linearGradient>
    <linearGradient x1="-77.092218" y1="-49.619145" x2="79.051946" y2="-49.619145" id="lgblack" gradientTransform="scale(1.7349352,0.57639042)" gradientUnits="userSpaceOnUse">
      <stop offset="0%" stop-color="#000000"/>
      <stop offset="100%" stop-color="#000000"/>
    </linearGradient>
  </defs>
  <g style="opacity:1" class="svg-clip svg-visible" transform="matrix(1.7353,0,0,1.7353,86.4339,0)">
    <svg width="187.03372" height="186.77" viewBox="-5.1318609 -5 187.03372 186.77" class="thumb" version="1.1">
      <g>
        <circle cx="88.385002" cy="88.385002" r="88.385002" style="fill:#ec4c4c;stroke:none"/>
      </g>
    </svg>
  </g>
  <g class="svg-clip svg-visible" transform="matrix(2.7273,0,0,2.7273,103.4118,14.474)" style="opacity:1">
    <svg width="108.898" height="107.91" viewBox="-4.449 -3.955 108.898 107.91" version="1.1">
      <g>
        <path d="m 50,1.045 c -27.311,0 -49.449,22.14 -49.449,49.45 0,23.925 16.991,43.88 39.564,48.46 0,-0.037 -0.005,-0.072 -0.005,-0.109 0,-5.463 4.428,-9.889 9.89,-9.889 5.462,0 9.89,4.426 9.89,9.889 0,0.037 -0.005,0.072 -0.005,0.109 C 82.458,94.375 99.449,74.42 99.449,50.495 99.449,23.185 77.31,1.045 50,1.045 Z M 23.791,54.066 c -3.004,0 -5.439,-2.436 -5.439,-5.439 0,-3.003 2.436,-5.439 5.439,-5.439 3.005,0 5.439,2.436 5.439,5.439 0,3.003 -2.434,5.439 -5.439,5.439 z M 31.95,36.925 c -3.004,0 -5.438,-2.437 -5.438,-5.44 0,-3.005 2.435,-5.44 5.438,-5.44 3.005,0 5.439,2.435 5.439,5.44 10e-4,3.003 -2.434,5.44 -5.439,5.44 z m 18.051,-7.363 c -3.005,0 -5.439,-2.436 -5.439,-5.439 0,-3.005 2.435,-5.439 5.439,-5.439 3.004,0 5.438,2.435 5.438,5.439 -10e-4,3.003 -2.434,5.439 -5.438,5.439 z m 12.608,1.923 c 0,-3.005 2.435,-5.44 5.439,-5.44 3.004,0 5.439,2.435 5.439,5.44 0,3.003 -2.436,5.44 -5.439,5.44 -3.004,0 -5.439,-2.437 -5.439,-5.44 z m 12.5,22.581 c -3.004,0 -5.439,-2.436 -5.439,-5.439 0,-3.003 2.436,-5.439 5.439,-5.439 3.003,0 5.439,2.436 5.439,5.439 0,3.003 -2.435,5.439 -5.439,5.439 z" style="fill:white;stroke:none" inkscape:connector-curvature="0"/>
      </g>
    </svg>
  </g>
  <g class="svg-clip svg-visible" transform="matrix(3.1805,0,0,3.1212,217.2896,137.4573)" style="opacity:1">
    <svg width="21" height="73.900002" viewBox="34.8 10.5 21 73.9" version="1.1">
      <g>
        <path d="M 50.8,34.1 V 20.4 H 49.3 46.8 V 17 c 0,-0.8 -0.7,-1.5 -1.5,-1.5 -0.8,0 -1.5,0.7 -1.5,1.5 v 3.5 h -4 v 13.6 c 0,3.9 1.8,6.2 4,7 v 36.8 c 0,0.8 0.7,1.5 1.5,1.5 0.8,0 1.5,-0.7 1.5,-1.5 V 41.1 c 2.1,-0.7 4,-2.9 4,-7 z M 42.7,23.5 h 5 v 10.6 c 0,2.9 -1.3,4.2 -2.4,4.2 -1.3,0 -2.6,-1.4 -2.6,-4.2 z" style="fill:#ec4c4c;stroke:none" inkscape:connector-curvature="0"/>
      </g>
    </svg>
  </g>
  <g class="svg-clip svg-visible" transform="matrix(3.1805,0,0,3.1212,243.158,137.4573)" style="opacity:1">
    <svg width="28.799999" height="73.800003" viewBox="42.6 10.5 28.8 73.8" version="1.1">
      <g>
        <path d="M 64.8,20.4 H 62.3 V 17 c 0,-0.8 -0.7,-1.5 -1.5,-1.5 -0.8,0 -1.5,0.7 -1.5,1.5 v 3.5 h -4 v 13.6 c 0,3.7 1.7,6.1 3.8,6.9 v 14.3 c -0.1,0.6 -0.6,4.4 -4.3,4.4 -5.5,0 -7.1,4.2 -7.2,6.4 v 11.7 c 0,0.8 0.7,1.5 1.5,1.5 0.8,0 1.5,-0.7 1.5,-1.5 V 66.1 c 0,-0.3 0.2,-3.4 4.1,-3.4 5.5,0 7.2,-4.8 7.4,-7.3 V 41.1 c 2.2,-0.6 4.3,-2.9 4.3,-7.1 V 20.4 Z m -1.6,13.7 c 0,2.9 -1.3,4.2 -2.4,4.2 -1.3,0 -2.6,-1.4 -2.6,-4.2 V 23.5 h 5 z" style="fill:#e5d80e;stroke:none" inkscape:connector-curvature="0"/>
      </g>
    </svg>
  </g>
  <g class="svg-clip svg-visible" transform="matrix(3.1805,0,0,3.1212,169.158,137.4573)" style="opacity:1">
    <svg width="28.5" height="73.900002" viewBox="19.3 10.5 28.5 73.9" version="1.1">
      <g>
        <path d="m 35.6,59.7 c -3.8,0 -4.3,-3.8 -4.3,-4.4 V 41.1 c 2.1,-0.7 4,-3 4,-7.1 L 35.5,20.4 H 31.3 V 17 c 0,-0.8 -0.7,-1.5 -1.5,-1.5 -0.8,0 -1.5,0.7 -1.5,1.5 v 3.5 h -4 v 13.6 c 0,3.9 1.8,6.2 4,7 v 14.3 0.1 c 0.2,2.5 1.9,7.3 7.4,7.3 3.7,0 4.1,2.8 4.1,3.4 v 11.7 c 0,0.8 0.7,1.5 1.5,1.5 0.8,0 1.5,-0.7 1.5,-1.5 V 66.1 C 42.7,63.9 41.1,59.7 35.6,59.7 Z M 27.2,23.5 h 5 v 10.6 c 0,2.9 -1.3,4.2 -2.4,4.2 -1.3,0 -2.6,-1.4 -2.6,-4.2 V 23.5 Z" style="fill:#1761a0;stroke:none" inkscape:connector-curvature="0"/>
      </g>
    </svg>
  </g>
  <g class="svg-clip svg-visible" transform="matrix(1.3299,0,0,1.0753,0,340.7807)" style="opacity:1">
    <svg width="186.742" height="16.667" viewBox="-5 80.051999 186.742 16.667001" class="thumb" version="1.1">
      <g>
        <path d="m 176.742,88.385 c 0,1.841 -1.492,3.334 -3.334,3.334 H 3.334 C 1.493,91.719 0,90.225 0,88.385 v 0 c 0,-1.841 1.493,-3.333 3.333,-3.333 h 170.074 c 1.843,-0.001 3.335,1.492 3.335,3.333 z" style="fill:#1761a0;stroke:none" inkscape:connector-curvature="0"/>
      </g>
    </svg>
  </g>
  <g class="svg-clip svg-visible" transform="matrix(1.3299,0,0,1.0753,254,338.7807)" style="opacity:1">
    <svg width="186.742" height="16.667" viewBox="-5 80.051999 186.742 16.667001" class="thumb" version="1.1">
      <g>
        <path d="m 176.742,88.385 c 0,1.841 -1.492,3.334 -3.334,3.334 H 3.334 C 1.493,91.719 0,90.225 0,88.385 v 0 c 0,-1.841 1.493,-3.333 3.333,-3.333 h 170.074 c 1.843,-0.001 3.335,1.492 3.335,3.333 z" style="fill:#e5d80e;stroke:none" inkscape:connector-curvature="0"/>
      </g>
    </svg>
  </g>
  <g class="svg-text svg-visible" transform="matrix(1.0281,0,0,1.0281,180.6844,339.3829)" style="opacity:1">
    <desc>
      ALTO
    </desc>
    <path d="M -76.322578,-63.62 V 0 h -12.69 V -17.19 H -133.64258 V 0 h -12.7 v -35.01 q 0,-7.67 2.64,-14.11 2.64,-6.45 7.33,-11.09 4.68,-4.63 11.08,-7.22 6.4,-2.59 13.96,-2.59 v 0 h 28.620002 q 1.32,0 2.49,0.49 1.17,0.49 2.05,1.37 0.88,0.87 1.37,2.05 0.48,1.17 0.48,2.49 z m -57.320002,28.61 v 5.13 h 44.630002 v -27.44 h -22.320002 q -0.58,0 -2.46,0.17 -1.88,0.17 -4.35,0.85 -2.46,0.68 -5.2,2.1 -2.73,1.42 -5.03,3.91 -2.29,2.49 -3.78,6.22 -1.49,3.74 -1.49,9.06 z M 2.7346875,-12.7 V 0 H -55.175313 q -1.37,0 -2.539999,-0.49 -1.17,-0.49 -2.03,-1.34 -0.85,-0.86 -1.34,-2.03 -0.490001,-1.17 -0.490001,-2.54 v 0 -63.62 h 12.700001 V -12.7 Z M 65.376563,-70.02 v 12.7 H 37.406562 V 0 h -12.7 V -57.32 H -3.3234375 v -12.7 z m 81.840857,28.32 v 13.38 q 0,6.4 -2.2,11.77 -2.2,5.37 -6.1,9.27 -3.91,3.91 -9.25,6.08 -5.35,2.18 -11.65,2.18 v 0 h -17.19 q -6.299998,0 -11.669998,-2.18 -5.37,-2.17 -9.27,-6.08 -3.91,-3.9 -6.13,-9.27 -2.22,-5.37 -2.22,-11.77 v 0 -13.38 q 0,-6.35 2.22,-11.74 2.22,-5.4 6.13,-9.28 3.9,-3.88 9.27,-6.08 5.37,-2.2 11.669998,-2.2 v 0 h 17.19 q 6.3,0 11.65,2.2 5.34,2.2 9.25,6.08 3.9,3.88 6.1,9.28 2.2,5.39 2.2,11.74 z m -12.7,13.38 V -41.7 q 0,-3.76 -1.19,-6.81 -1.2,-3.05 -3.37,-5.23 -2.17,-2.17 -5.23,-3.36 -3.05,-1.2 -6.71,-1.2 v 0 h -17.19 q -3.709998,0 -6.759998,1.2 -3.05,1.19 -5.25,3.36 -2.2,2.18 -3.39,5.23 -1.2,3.05 -1.2,6.81 v 0 13.38 q 0,3.76 1.2,6.81 1.19,3.05 3.39,5.23 2.2,2.17 5.25,3.36 3.05,1.2 6.759998,1.2 v 0 h 17.09 q 3.71,0 6.77,-1.2 3.05,-1.19 5.24,-3.36 2.2,-2.18 3.4,-5.23 1.19,-3.05 1.19,-6.81 z" data-textpath="ALTO" data-text-anchor="middle" data-font-size="100" data-letterspacing="0" data-side="left" data-offset="0" data-dx="0" data-dy="95.61767578125" data-href="" data-font="Audiowide" data-font-src="/Content/clientfonts/audiowide.woff" data-font-scale="contain" transform="translate(0,95.617676)" data-xmlspace="preserve" inkscape:connector-curvature="0" style="fill:#ec4c4c"/>
    <rect x="0" y="0" width="0" height="0"/>
  </g>
  <g class="svg-text svg-visible" transform="matrix(0.5,0,0,0.5,409.6844,347.3829)" style="opacity:1">
    <desc>
      @IETF
    </desc>
    <path d="m -114.65,16.4 q -8.6,0 -13.85,-4.95 -5.25,-4.95 -5.25,-14.75 v 0 -32.2 q 0,-7.1 4,-12.75 4,-5.65 15.1,-5.65 v 0 h 19.1 q 7.3,0 11.95,3.2 4.65,3.2 4.65,11.8 v 0 36.2 h -4.9 l -1.2,-6.1 q -0.2,0.1 -5.95,3.55 -5.75,3.45 -13.65,3.45 v 0 q -5.9,0 -9.35,-3.7 -3.45,-3.7 -3.45,-9 v 0 -4.6 q 0,-5.9 3.6,-9.1 3.6,-3.2 10.2,-3.2 v 0 h 18.4 v -7 q 0,-9.2 -10.3,-9.2 v 0 h -19.1 q -6,0 -9.4,2.8 -3.4,2.8 -3.4,9.6 v 0 31.2 q 0,7.5 3.75,10.75 3.75,3.25 9.05,3.25 v 0 h 31.9 q 7.1,0 10.4,-3.5 3.3,-3.5 3.3,-10.5 v 0 -47.9 q 0,-6.9 -3.55,-10.95 -3.55,-4.05 -10.15,-4.05 v 0 h -39.4 v -4.7 q 3.5,-0.7 11.8,-1.15 8.3,-0.45 18,-0.45 v 0 h 9.6 q 8.8,0 14.4,5.3 5.6,5.3 5.6,16 v 0 47.9 q 0,10 -4.7,15.2 -4.7,5.2 -15,5.2 v 0 z m 12.4,-24.5 q 3.6,0 8.8,-1.7 5.2,-1.7 8.2,-3.6 v 0 -13.7 l -17,0.9 q -3.7,0.2 -6.15,1.6 -2.45,1.4 -2.45,5.4 v 0 3.5 q 0,3.5 2.3,5.55 2.3,2.05 6.3,2.05 z m 56.4,8.1 v -73.6 h 8 V 0 Z m 38.4,0.4 q -6.3,0 -10.65,-2.95 -4.35,-2.95 -4.35,-11.35 v 0 -44.9 q 0,-7.8 4.2,-11.3 4.2,-3.5 10.3,-3.5 v 0 q 16,0.3 24.9,0.7 v 0 l 5.9,0.2 v 6.4 h -28.8 q -8.5,0 -8.5,8.8 v 0 17.4 l 32.9,0.5 v 6.1 l -32.9,0.5 v 17.3 q 0,5.1 2.4,6.9 2.4,1.8 6.5,1.8 v 0 h 28.4 v 6.4 q -19,1 -30.3,1 z M 52.95,0 v -66.4 h -22.8 v -7.2 h 53.4 v 7.2 H 60.85 V 0 Z m 38.9,0 v -58.8 q 0,-7.8 4.2,-11.3 4.2,-3.5 10.3,-3.5 v 0 l 5.6,0.1 q 2.4,0.1 10.45,0.25 8.05,0.15 14.75,0.65 v 0 6.3 h -28.9 q -4,0 -6.2,2.25 -2.2,2.25 -2.2,6.45 v 0 19.1 l 32.9,0.5 v 6.1 l -32.9,0.5 V 0 Z" data-textpath="@IETF" data-text-anchor="middle" data-font-size="100" data-letterspacing="0" data-side="left" data-offset="0" data-dx="0" data-dy="99.67500000000001" data-href="" data-font="Exo" data-font-src="/Content/clientfonts/exo.woff" data-font-scale="contain" transform="translate(0,99.675)" data-xmlspace="preserve" inkscape:connector-curvature="0" style="fill:black"/>
    <rect x="0" y="0" width="0" height="0"/>
  </g>
</svg>
